<svg width="48" height="48" viewBox="0 0 48 48" fill="none" xmlns="http://www.w3.org/2000/svg">
<g id="LinkedIn">
<g id="LinkedIn_2">
<rect id="Rectangle" width="48" height="48" rx="24" fill="#0077B5"/>
<g id="Group">
<path id="Path" d="M37.3247 35.325C35.7497 35.2875 34.2122 35.2875 32.6372 35.325C32.2997 35.325 32.2247 35.25 32.2247 34.9125C32.2247 32.1375 32.2247 29.325 32.2247 26.55C32.2247 25.9125 32.1872 25.275 31.9997 24.675C31.4372 22.725 29.1872 22.0125 27.5747 23.325C26.7122 24 26.3747 24.9375 26.3747 26.0625C26.3747 28.6875 26.3747 31.3125 26.3747 33.9375C26.3747 34.275 26.3372 34.6125 26.3747 34.9875C26.4122 35.2875 26.2622 35.3625 25.9997 35.325C24.3872 35.325 22.8122 35.325 21.1997 35.325C20.8997 35.325 20.8247 35.25 20.8247 34.95C20.8622 32.5875 20.8622 30.225 20.8622 27.825C20.8622 24.9 20.8622 21.975 20.8247 19.0875C20.8247 18.75 20.8997 18.675 21.1997 18.675C22.8122 18.675 24.3872 18.675 25.9997 18.675C26.2997 18.675 26.3747 18.75 26.3747 19.05C26.3747 19.65 26.3747 20.25 26.3747 20.9625C26.4872 20.85 26.5247 20.8125 26.5622 20.775C28.0247 18.6375 30.0872 18.0375 32.5247 18.4125C35.3372 18.8625 37.1372 20.8125 37.5872 23.8125C37.6997 24.525 37.7372 25.2375 37.7372 25.95C37.7372 28.95 37.7372 31.9125 37.7372 34.9125C37.7372 35.2125 37.6622 35.325 37.3247 35.325Z" fill="white"/>
<path id="Path_2" d="M17.825 27C17.825 29.625 17.825 32.25 17.825 34.875C17.825 35.2125 17.75 35.325 17.4125 35.325C15.8375 35.2875 14.2625 35.325 12.6875 35.325C12.3875 35.325 12.3125 35.25 12.3125 34.95C12.3125 29.6625 12.3125 24.3375 12.3125 19.05C12.3125 18.7875 12.3875 18.675 12.6875 18.675C14.3 18.675 15.9125 18.675 17.525 18.675C17.8625 18.675 17.9 18.7875 17.9 19.0875C17.825 21.7125 17.825 24.3375 17.825 27Z" fill="white"/>
<path id="Path_3" d="M18.0874 14.325C17.7124 15.825 16.1749 16.6875 14.4124 16.3875C12.5374 16.0875 11.4874 14.25 12.1624 12.45C12.6124 11.325 13.6999 10.65 15.0874 10.6875C17.1874 10.65 18.5749 12.3375 18.0874 14.325Z" fill="white"/>
</g>
</g>
</g>
</svg>
