<svg width="24" height="24" viewBox="0 0 24 24" fill="none" xmlns="http://www.w3.org/2000/svg">
<path d="M8 3V2.5C7.86739 2.5 7.74021 2.55268 7.64645 2.64645C7.55268 2.74021 7.5 2.86739 7.5 3L8 3ZM16 3L16.5 3C16.5 2.86739 16.4473 2.74021 16.3536 2.64645C16.2598 2.55268 16.1326 2.5 16 2.5V3ZM14.5 11.5C14.7761 11.5 15 11.2761 15 11C15 10.7239 14.7761 10.5 14.5 10.5V11.5ZM12.5 10C12.5 9.72386 12.2761 9.5 12 9.5C11.7239 9.5 11.5 9.72386 11.5 10H12.5ZM9.5 16.5C9.22386 16.5 9 16.7239 9 17C9 17.2761 9.22386 17.5 9.5 17.5V16.5ZM11.5 18C11.5 18.2761 11.7239 18.5 12 18.5C12.2761 18.5 12.5 18.2761 12.5 18H11.5ZM7 6.5C6.72386 6.5 6.5 6.72386 6.5 7C6.5 7.27614 6.72386 7.5 7 7.5V6.5ZM17 7.5C17.2761 7.5 17.5 7.27614 17.5 7C17.5 6.72386 17.2761 6.5 17 6.5V7.5ZM7.06111 20.6134L6.9853 21.1076L7.06111 20.6134ZM19.8464 16.8804L19.3492 16.9329L19.8464 16.8804ZM16.9389 20.6134L16.8631 20.1192L16.9389 20.6134ZM13.5 7C13.5 7.36063 13.7482 7.59121 13.905 7.71367C14.0752 7.84668 14.3076 7.97894 14.5317 8.10834C15.0026 8.38026 15.6036 8.7304 16.2319 9.31259C17.4732 10.4628 18.8911 12.5873 19.3492 16.9329L20.3437 16.828C19.8646 12.284 18.3593 9.92058 16.9116 8.5791C16.1954 7.91544 15.5106 7.5188 15.0317 7.24233C14.7809 7.09753 14.6224 7.00519 14.5206 6.92562C14.4052 6.83549 14.5 6.86551 14.5 7H13.5ZM10.2236 6.55279C9.40895 6.14546 8.96567 5.3098 8.73076 4.48764C8.61572 4.08499 8.5576 3.70848 8.5285 3.43203C8.51401 3.29439 8.50688 3.18308 8.50337 3.10763C8.50161 3.06994 8.50077 3.04131 8.50037 3.02295C8.50017 3.01377 8.50007 3.00717 8.50003 3.00329C8.50001 3.00135 8.5 3.00009 8.5 2.99954C8.5 2.99926 8.5 2.99916 8.5 2.99924C8.5 2.99927 8.5 2.99936 8.5 2.99948C8.5 2.99955 8.5 2.99968 8.5 2.99971C8.5 2.99985 8.5 3 8 3C7.5 3 7.5 3.00017 7.5 3.00036C7.5 3.00044 7.5 3.00064 7.5 3.00079C7.5 3.0011 7.5 3.00146 7.5 3.00186C7.5 3.00266 7.50001 3.00365 7.50001 3.00482C7.50003 3.00715 7.50005 3.01022 7.50009 3.01398C7.50017 3.02152 7.50032 3.03188 7.50061 3.04492C7.50118 3.07099 7.50229 3.10779 7.50445 3.15409C7.50875 3.24661 7.51724 3.37748 7.534 3.53672C7.5674 3.85402 7.63428 4.29001 7.76924 4.76236C8.03433 5.6902 8.59105 6.85454 9.77639 7.44721L10.2236 6.55279ZM8 3.5H16V2.5H8V3.5ZM10 7.5H14V6.5H10V7.5ZM16 3C15.5 3 15.5 2.99985 15.5 2.99971C15.5 2.99968 15.5 2.99955 15.5 2.99948C15.5 2.99936 15.5 2.99927 15.5 2.99924C15.5 2.99916 15.5 2.99926 15.5 2.99954C15.5 3.00009 15.5 3.00135 15.5 3.00329C15.4999 3.00717 15.4998 3.01377 15.4996 3.02295C15.4992 3.04131 15.4984 3.06994 15.4966 3.10763C15.4931 3.18308 15.486 3.29439 15.4715 3.43203C15.4424 3.70848 15.3843 4.08499 15.2692 4.48764C15.0343 5.3098 14.5911 6.14546 13.7764 6.55279L14.2236 7.44721C15.4089 6.85454 15.9657 5.6902 16.2308 4.76236C16.3657 4.29001 16.4326 3.85402 16.466 3.53672C16.4828 3.37748 16.4913 3.24661 16.4956 3.15409C16.4977 3.10779 16.4988 3.07099 16.4994 3.04492C16.4997 3.03188 16.4998 3.02152 16.4999 3.01398C16.5 3.01022 16.5 3.00715 16.5 3.00482C16.5 3.00365 16.5 3.00266 16.5 3.00186C16.5 3.00146 16.5 3.0011 16.5 3.00079C16.5 3.00064 16.5 3.00044 16.5 3.00036C16.5 3.00017 16.5 3 16 3ZM9.5 7C9.5 6.86551 9.59479 6.83549 9.47942 6.92562C9.37756 7.00519 9.21905 7.09753 8.96827 7.24233C8.48944 7.5188 7.80456 7.91544 7.08838 8.5791C5.64071 9.92058 4.13538 12.284 3.65632 16.828L4.65081 16.9329C5.10894 12.5873 6.52682 10.4628 7.76807 9.31259C8.39635 8.7304 8.99736 8.38026 9.4683 8.10834C9.69241 7.97894 9.92475 7.84668 10.095 7.71367C10.2518 7.59121 10.5 7.36063 10.5 7H9.5ZM12 14.5H13V13.5H12V14.5ZM14.5 10.5H12V11.5H14.5V10.5ZM12.5 11V10H11.5V11H12.5ZM12 16.5H9.5V17.5H12V16.5ZM11.5 17V18H12.5V17H11.5ZM11.5 11V14H12.5V11H11.5ZM11.5 14V17H12.5V14H11.5ZM10 6.5H7V7.5H10V6.5ZM14 7.5H17V6.5H14V7.5ZM16.8631 20.1192C15.398 20.3439 13.7443 20.5 12 20.5V21.5C13.8029 21.5 15.5078 21.3388 17.0147 21.1076L16.8631 20.1192ZM12 20.5C10.2557 20.5 8.602 20.3439 7.13692 20.1192L6.9853 21.1076C8.49217 21.3388 10.1971 21.5 12 21.5V20.5ZM13 16.5H12V17.5H13V16.5ZM11 14.5H12V13.5H11V14.5ZM11 11.5H12V10.5H11V11.5ZM14 15.5C14 16.0523 13.5523 16.5 13 16.5V17.5C14.1046 17.5 15 16.6046 15 15.5H14ZM13 14.5C13.5523 14.5 14 14.9477 14 15.5H15C15 14.3954 14.1046 13.5 13 13.5V14.5ZM10 12.5C10 11.9477 10.4477 11.5 11 11.5V10.5C9.89543 10.5 9 11.3954 9 12.5H10ZM9 12.5C9 13.6046 9.89543 14.5 11 14.5V13.5C10.4477 13.5 10 13.0523 10 12.5H9ZM3.65632 16.828C3.43522 18.9252 4.91346 20.7898 6.9853 21.1076L7.13692 20.1192C5.58026 19.8804 4.48702 18.4864 4.65081 16.9329L3.65632 16.828ZM19.3492 16.9329C19.513 18.4864 18.4197 19.8804 16.8631 20.1192L17.0147 21.1076C19.0865 20.7898 20.5648 18.9252 20.3437 16.828L19.3492 16.9329Z" fill="#09090B"/>
</svg>
